<svg width="61" height="16" viewBox="0 0 61 16" fill="none" xmlns="http://www.w3.org/2000/svg">
<path d="M1.54541 12.5833C2.22138 13.5235 3.08846 14.3103 4.08979 14.8919C5.09112 15.4735 6.20409 15.8369 7.35572 15.9583C6.76322 15.0667 5.90199 14.2464 4.82681 13.6219C3.75163 12.9974 2.613 12.6563 1.54541 12.5833Z" fill="url(#paint0_linear_2773_17866)"/>
<path d="M6.27169 11.1353C4.20024 9.93181 1.95822 9.62512 0.354004 10.1669C0.508871 10.6788 0.713118 11.1743 0.963859 11.6467C2.35766 11.6144 3.87945 11.993 5.29549 12.8154C6.71153 13.6379 7.79457 14.773 8.45731 16C8.99213 15.9836 9.52409 15.9155 10.0458 15.7966C9.72149 14.1349 8.3426 12.339 6.27169 11.1353Z" fill="url(#paint1_linear_2773_17866)"/>
<path d="M16.1428 6.25044C15.8795 5.1792 15.4029 4.17201 14.7417 3.28903C14.0804 2.40603 13.248 1.66534 12.2942 1.11118C11.3403 0.557016 10.2846 0.200751 9.18999 0.0636547C8.09539 -0.0734424 6.98439 0.0114397 5.92334 0.313233C7.69596 0.530167 9.66355 1.19561 11.5932 2.31661C13.5228 3.43762 15.0769 4.81706 16.1428 6.25044Z" fill="url(#paint2_linear_2773_17866)"/>
<path d="M13.5636 10.1792C12.6563 8.67231 11.1019 7.22943 9.18722 6.11709C7.27251 5.00477 5.2496 4.36943 3.4927 4.32739C1.94705 4.29078 0.786997 4.74011 0.310827 5.55985C0.308115 5.56472 0.304318 5.56934 0.301335 5.57422C0.258491 5.72797 0.221612 5.88199 0.187988 6.03656C0.85289 5.77408 1.62327 5.62791 2.4799 5.61163C4.38484 5.57585 6.51676 6.18517 8.48408 7.32813C10.4514 8.47111 12.038 10.0219 12.9502 11.6939C13.3591 12.4472 13.6143 13.1889 13.7155 13.8974C13.8331 13.7922 13.9486 13.6835 14.0606 13.5704C14.0636 13.5653 14.0655 13.5598 14.0685 13.5544C14.5447 12.7339 14.3606 11.5038 13.5636 10.1792Z" fill="url(#paint3_linear_2773_17866)"/>
<path d="M7.73044 8.62424C4.79831 6.92077 1.55813 6.65394 0 7.84274C0.0030605 8.21483 0.0315083 8.58629 0.0851462 8.95452C0.543493 8.81558 1.01588 8.72809 1.49359 8.69365C3.23476 8.56269 5.15436 9.04781 6.89634 10.0604C8.63832 11.0729 10.0115 12.5009 10.7605 14.0772C10.9675 14.509 11.1254 14.9627 11.2312 15.4297C11.5777 15.2939 11.9147 15.1347 12.2397 14.9533C12.5006 13.0106 10.6634 10.328 7.73044 8.62424Z" fill="url(#paint4_linear_2773_17866)"/>
<path d="M15.0716 7.65703C14.154 6.15178 12.5861 4.70484 10.6578 3.58518C8.72956 2.46553 6.6988 1.82015 4.9362 1.76836C3.59257 1.72959 2.55182 2.05525 2.01221 2.67053C4.25285 2.2909 7.20831 2.92895 10.0729 4.59311C12.9375 6.25727 14.9567 8.50904 15.736 10.6434C16.0031 9.8703 15.7707 8.80488 15.0716 7.65703Z" fill="url(#paint5_linear_2773_17866)"/>
<path d="M22.7946 13.18C22.1066 13.18 21.5386 13.004 21.0906 12.652C20.6466 12.3 20.3306 11.824 20.1426 11.224L21.7506 10.84C21.7866 11.06 21.9026 11.252 22.0986 11.416C22.2946 11.576 22.5026 11.656 22.7226 11.656C22.8746 11.656 23.0366 11.614 23.2086 11.53C23.3846 11.446 23.5106 11.312 23.5866 11.128C23.6346 11.012 23.6626 10.87 23.6706 10.702C23.6786 10.534 23.6826 10.34 23.6826 10.12V4.35999H25.3386V10.12C25.3386 10.396 25.3366 10.636 25.3326 10.84C25.3326 11.044 25.3126 11.236 25.2726 11.416C25.2366 11.592 25.1626 11.776 25.0506 11.968C24.8066 12.392 24.4886 12.7 24.0966 12.892C23.7046 13.084 23.2706 13.18 22.7946 13.18Z" fill="black"/>
<path d="M29.1869 13.192C28.6789 13.192 28.2649 13.106 27.9449 12.934C27.6249 12.762 27.3749 12.544 27.1949 12.28C27.0189 12.016 26.8929 11.742 26.8169 11.458C26.7409 11.17 26.6949 10.908 26.6789 10.672C26.6629 10.436 26.6549 10.264 26.6549 10.156V6.51999H28.3109V9.57999C28.3109 9.72799 28.3189 9.91799 28.3349 10.15C28.3509 10.378 28.4009 10.608 28.4849 10.84C28.5689 11.072 28.7049 11.266 28.8929 11.422C29.0849 11.578 29.3549 11.656 29.7029 11.656C29.8429 11.656 29.9929 11.634 30.1529 11.59C30.3129 11.546 30.4629 11.462 30.6029 11.338C30.7429 11.21 30.8569 11.024 30.9449 10.78C31.0369 10.532 31.0829 10.208 31.0829 9.80799L32.0189 10.252C32.0189 10.764 31.9149 11.244 31.7069 11.692C31.4989 12.14 31.1849 12.502 30.7649 12.778C30.3489 13.054 29.8229 13.192 29.1869 13.192ZM31.2869 13V10.852H31.0829V6.51999H32.7269V13H31.2869Z" fill="black"/>
<path d="M37.2238 13.18C36.5798 13.18 36.0418 13.03 35.6098 12.73C35.1778 12.43 34.8518 12.022 34.6318 11.506C34.4158 10.99 34.3078 10.408 34.3078 9.75999C34.3078 9.11199 34.4158 8.52999 34.6318 8.01399C34.8478 7.49799 35.1658 7.08999 35.5858 6.78999C36.0058 6.48999 36.5238 6.33999 37.1398 6.33999C37.7598 6.33999 38.2998 6.48799 38.7598 6.78399C39.2198 7.07999 39.5758 7.48599 39.8278 8.00199C40.0838 8.51399 40.2118 9.09999 40.2118 9.75999C40.2118 10.408 40.0858 10.99 39.8338 11.506C39.5858 12.022 39.2378 12.43 38.7898 12.73C38.3418 13.03 37.8198 13.18 37.2238 13.18ZM34.0318 15.88V6.51999H35.4718V10.96H35.6758V15.88H34.0318ZM36.9598 11.728C37.3118 11.728 37.5998 11.64 37.8238 11.464C38.0478 11.288 38.2138 11.052 38.3218 10.756C38.4298 10.456 38.4838 10.124 38.4838 9.75999C38.4838 9.39999 38.4278 9.07199 38.3158 8.77599C38.2038 8.47599 38.0298 8.23799 37.7938 8.06199C37.5618 7.88199 37.2638 7.79199 36.8998 7.79199C36.5598 7.79199 36.2838 7.87399 36.0718 8.03799C35.8638 8.20199 35.7118 8.43199 35.6158 8.72799C35.5198 9.02399 35.4718 9.36799 35.4718 9.75999C35.4718 10.152 35.5198 10.496 35.6158 10.792C35.7118 11.088 35.8678 11.318 36.0838 11.482C36.3038 11.646 36.5958 11.728 36.9598 11.728Z" fill="black"/>
<path d="M41.2921 5.61999V4.17999H42.9241V5.61999H41.2921ZM41.2921 13V6.51999H42.9241V13H41.2921Z" fill="black"/>
<path d="M48.2509 13C47.8029 13.084 47.3629 13.12 46.9309 13.108C46.5029 13.1 46.1189 13.026 45.7789 12.886C45.4429 12.742 45.1869 12.512 45.0109 12.196C44.8509 11.9 44.7669 11.6 44.7589 11.296C44.7509 10.988 44.7469 10.64 44.7469 10.252V4.71999H46.3789V10.156C46.3789 10.408 46.3809 10.636 46.3849 10.84C46.3929 11.04 46.4349 11.2 46.5109 11.32C46.6549 11.548 46.8849 11.672 47.2009 11.692C47.5169 11.712 47.8669 11.696 48.2509 11.644V13ZM43.6429 7.77999V6.51999H48.2509V7.77999H43.6429Z" fill="black"/>
<path d="M51.9954 13.18C51.3314 13.18 50.7454 13.038 50.2374 12.754C49.7334 12.466 49.3374 12.072 49.0494 11.572C48.7654 11.068 48.6234 10.492 48.6234 9.84399C48.6234 9.13599 48.7634 8.51999 49.0434 7.99599C49.3234 7.47199 49.7094 7.06599 50.2014 6.77799C50.6934 6.48599 51.2594 6.33999 51.8994 6.33999C52.5794 6.33999 53.1574 6.49999 53.6334 6.81999C54.1094 7.13999 54.4614 7.58999 54.6894 8.16999C54.9174 8.74999 54.9974 9.43199 54.9294 10.216H53.3154V9.61599C53.3154 8.95599 53.2094 8.48199 52.9974 8.19399C52.7894 7.90199 52.4474 7.75599 51.9714 7.75599C51.4154 7.75599 51.0054 7.92599 50.7414 8.26599C50.4814 8.60199 50.3514 9.09999 50.3514 9.75999C50.3514 10.364 50.4814 10.832 50.7414 11.164C51.0054 11.492 51.3914 11.656 51.8994 11.656C52.2194 11.656 52.4934 11.586 52.7214 11.446C52.9494 11.306 53.1234 11.104 53.2434 10.84L54.8754 11.308C54.6314 11.9 54.2454 12.36 53.7174 12.688C53.1934 13.016 52.6194 13.18 51.9954 13.18ZM49.8474 10.216V9.00399H54.1434V10.216H49.8474Z" fill="black"/>
<path d="M55.9241 13V6.51999H57.3641V8.10399L57.2081 7.89999C57.2921 7.67599 57.4041 7.47199 57.5441 7.28799C57.6841 7.10399 57.8561 6.95199 58.0601 6.83199C58.2161 6.73599 58.3861 6.66199 58.5701 6.60999C58.7541 6.55399 58.9441 6.51999 59.1401 6.50799C59.3361 6.49199 59.5321 6.49599 59.7281 6.51999V8.04399C59.5481 7.98799 59.3381 7.96999 59.0981 7.98999C58.8621 8.00599 58.6481 8.05999 58.4561 8.15199C58.2641 8.23999 58.1021 8.35799 57.9701 8.50599C57.8381 8.64999 57.7381 8.82199 57.6701 9.02199C57.6021 9.21799 57.5681 9.43999 57.5681 9.68799V13H55.9241Z" fill="black"/>
<defs>
<linearGradient id="paint0_linear_2773_17866" x1="13.0756" y1="2.09855" x2="2.42143" y2="15.9812" gradientUnits="userSpaceOnUse">
<stop stop-color="#F9A43A"/>
<stop offset="0.25" stop-color="#FFC45E"/>
<stop offset="0.53125" stop-color="#93EEEF"/>
<stop offset="0.760417" stop-color="#81F4FE"/>
<stop offset="1" stop-color="#3BDBFB"/>
</linearGradient>
<linearGradient id="paint1_linear_2773_17866" x1="13.0757" y1="2.09854" x2="2.42157" y2="15.9812" gradientUnits="userSpaceOnUse">
<stop stop-color="#F9A43A"/>
<stop offset="0.25" stop-color="#FFC45E"/>
<stop offset="0.53125" stop-color="#93EEEF"/>
<stop offset="0.760417" stop-color="#81F4FE"/>
<stop offset="1" stop-color="#3BDBFB"/>
</linearGradient>
<linearGradient id="paint2_linear_2773_17866" x1="13.0757" y1="2.09854" x2="2.4216" y2="15.9812" gradientUnits="userSpaceOnUse">
<stop stop-color="#F9A43A"/>
<stop offset="0.25" stop-color="#FFC45E"/>
<stop offset="0.53125" stop-color="#93EEEF"/>
<stop offset="0.760417" stop-color="#81F4FE"/>
<stop offset="1" stop-color="#3BDBFB"/>
</linearGradient>
<linearGradient id="paint3_linear_2773_17866" x1="13.0756" y1="2.09856" x2="2.42145" y2="15.9812" gradientUnits="userSpaceOnUse">
<stop stop-color="#F9A43A"/>
<stop offset="0.25" stop-color="#FFC45E"/>
<stop offset="0.53125" stop-color="#93EEEF"/>
<stop offset="0.760417" stop-color="#81F4FE"/>
<stop offset="1" stop-color="#3BDBFB"/>
</linearGradient>
<linearGradient id="paint4_linear_2773_17866" x1="13.0755" y1="2.09852" x2="2.42139" y2="15.9812" gradientUnits="userSpaceOnUse">
<stop stop-color="#F9A43A"/>
<stop offset="0.25" stop-color="#FFC45E"/>
<stop offset="0.53125" stop-color="#93EEEF"/>
<stop offset="0.760417" stop-color="#81F4FE"/>
<stop offset="1" stop-color="#3BDBFB"/>
</linearGradient>
<linearGradient id="paint5_linear_2773_17866" x1="13.0754" y1="2.09853" x2="2.42131" y2="15.9812" gradientUnits="userSpaceOnUse">
<stop stop-color="#F9A43A"/>
<stop offset="0.25" stop-color="#FFC45E"/>
<stop offset="0.53125" stop-color="#93EEEF"/>
<stop offset="0.760417" stop-color="#81F4FE"/>
<stop offset="1" stop-color="#3BDBFB"/>
</linearGradient>
</defs>
</svg>